<svg width="16" height="16" viewBox="0 0 16 16" fill="none" xmlns="http://www.w3.org/2000/svg">
<path d="M14.9832 13H14.0001V5.99995C14.0001 5.73473 13.8948 5.48038 13.7072 5.29284C13.5197 5.10531 13.2653 4.99995 13.0001 4.99995H10.2501C10.1838 4.99995 10.1202 5.02629 10.0733 5.07317C10.0265 5.12006 10.0001 5.18365 10.0001 5.24995V13H9.00012V2.02558C9.00178 1.86981 8.96797 1.71572 8.90127 1.57495C8.83457 1.43418 8.73672 1.31043 8.61512 1.21308C8.44937 1.08385 8.24712 1.01013 8.03709 1.00239C7.82706 0.994646 7.61993 1.05328 7.44512 1.16995L2.44512 4.49995C2.30796 4.59146 2.19555 4.71547 2.11791 4.86094C2.04027 5.0064 1.99981 5.16881 2.00012 5.3337V13H1.017C0.887788 12.998 0.76265 13.0451 0.666755 13.1318C0.570861 13.2184 0.511324 13.3381 0.500122 13.4668C0.495581 13.5352 0.50515 13.6038 0.528236 13.6684C0.551322 13.7329 0.587432 13.792 0.634322 13.842C0.681211 13.892 0.73788 13.9318 0.800808 13.959C0.863736 13.9862 0.931578 14.0001 1.00012 14H15.0001C15.0687 14.0001 15.1365 13.9862 15.1994 13.959C15.2624 13.9318 15.319 13.892 15.3659 13.842C15.4128 13.792 15.4489 13.7329 15.472 13.6684C15.4951 13.6038 15.5047 13.5352 15.5001 13.4668C15.4889 13.3381 15.4294 13.2184 15.3335 13.1318C15.2376 13.0451 15.1125 12.998 14.9832 13ZM4.75012 11.5C4.75027 11.5685 4.73633 11.6363 4.70916 11.6993C4.68198 11.7622 4.64216 11.8189 4.59216 11.8658C4.54217 11.9126 4.48307 11.9488 4.41853 11.9718C4.35399 11.9949 4.28539 12.0045 4.217 12C4.08815 11.9887 3.96834 11.9291 3.88171 11.8331C3.79507 11.7371 3.74805 11.6118 3.75012 11.4825V10.5168C3.74836 10.3877 3.7955 10.2626 3.88209 10.1667C3.96868 10.0709 4.08832 10.0113 4.217 9.99995C4.28539 9.99541 4.35399 10.005 4.41853 10.0281C4.48307 10.0512 4.54217 10.0873 4.59216 10.1341C4.64216 10.181 4.68198 10.2377 4.70916 10.3006C4.73633 10.3636 4.75027 10.4314 4.75012 10.5V11.5ZM4.75012 7.99995C4.75027 8.06849 4.73633 8.13634 4.70916 8.19926C4.68198 8.26219 4.64216 8.31886 4.59216 8.36575C4.54217 8.41264 4.48307 8.44875 4.41853 8.47184C4.35399 8.49492 4.28539 8.50449 4.217 8.49995C4.08821 8.4886 3.96848 8.42893 3.88188 8.33293C3.79527 8.23694 3.7482 8.11173 3.75012 7.98245V7.01683C3.74836 6.88766 3.7955 6.7626 3.88209 6.66674C3.96868 6.57087 4.08832 6.51129 4.217 6.49995C4.28539 6.49541 4.35399 6.50498 4.41853 6.52806C4.48307 6.55115 4.54217 6.58726 4.59216 6.63415C4.64216 6.68104 4.68198 6.73771 4.70916 6.80064C4.73633 6.86356 4.75027 6.93141 4.75012 6.99995V7.99995ZM7.25012 11.5C7.25027 11.5685 7.23633 11.6363 7.20916 11.6993C7.18198 11.7622 7.14216 11.8189 7.09216 11.8658C7.04217 11.9126 6.98307 11.9488 6.91853 11.9718C6.85399 11.9949 6.78539 12.0045 6.717 12C6.58837 11.9888 6.46874 11.9293 6.38214 11.8335C6.29554 11.7378 6.24837 11.6128 6.25012 11.4837V10.5168C6.24852 10.3878 6.29573 10.2629 6.38231 10.1671C6.46888 10.0714 6.58843 10.0119 6.717 10.0006C6.78539 9.99603 6.85399 10.0056 6.91853 10.0287C6.98307 10.0518 7.04217 10.0879 7.09216 10.1348C7.14216 10.1817 7.18198 10.2383 7.20916 10.3013C7.23633 10.3642 7.25027 10.432 7.25012 10.5006V11.5ZM7.25012 7.99995C7.25027 8.06849 7.23633 8.13634 7.20916 8.19926C7.18198 8.26219 7.14216 8.31886 7.09216 8.36575C7.04217 8.41264 6.98307 8.44875 6.91853 8.47184C6.85399 8.49492 6.78539 8.50449 6.717 8.49995C6.58843 8.48861 6.46888 8.42912 6.38231 8.33339C6.29573 8.23766 6.24852 8.11276 6.25012 7.9837V7.01683C6.24852 6.88776 6.29573 6.76286 6.38231 6.66713C6.46888 6.5714 6.58843 6.51191 6.717 6.50058C6.78539 6.49603 6.85399 6.5056 6.91853 6.52869C6.98307 6.55178 7.04217 6.58789 7.09216 6.63478C7.14216 6.68166 7.18198 6.73833 7.20916 6.80126C7.23633 6.86419 7.25027 6.93203 7.25012 7.00058V7.99995Z" fill="#A8A29E"/>
</svg>
