<svg width="16" height="16" viewBox="0 0 16 16" fill="none" xmlns="http://www.w3.org/2000/svg">
<path d="M13.5 3H2.50002C2.2348 3 1.98045 3.10536 1.79291 3.29289C1.60537 3.48043 1.50002 3.73478 1.50002 4V14C1.49886 14.1907 1.55281 14.3777 1.65537 14.5384C1.75793 14.6992 1.90473 14.8269 2.07814 14.9062C2.21029 14.9678 2.35425 14.9998 2.50002 15C2.73477 14.9994 2.96174 14.9157 3.14064 14.7638C3.14362 14.7618 3.14635 14.7595 3.14877 14.7569L5.15627 13H13.5C13.7652 13 14.0196 12.8946 14.2071 12.7071C14.3947 12.5196 14.5 12.2652 14.5 12V4C14.5 3.73478 14.3947 3.48043 14.2071 3.29289C14.0196 3.10536 13.7652 3 13.5 3ZM5.25002 8.75C5.10168 8.75 4.95668 8.70601 4.83334 8.6236C4.71 8.54119 4.61387 8.42406 4.55711 8.28701C4.50034 8.14997 4.48549 7.99917 4.51443 7.85368C4.54337 7.7082 4.6148 7.57456 4.71969 7.46967C4.82458 7.36478 4.95821 7.29335 5.1037 7.26441C5.24919 7.23547 5.39999 7.25032 5.53703 7.30709C5.67408 7.36386 5.79121 7.45999 5.87362 7.58332C5.95603 7.70666 6.00002 7.85166 6.00002 8C6.00002 8.19891 5.921 8.38968 5.78035 8.53033C5.6397 8.67098 5.44893 8.75 5.25002 8.75ZM8.00002 8.75C7.85168 8.75 7.70668 8.70601 7.58334 8.6236C7.46 8.54119 7.36387 8.42406 7.30711 8.28701C7.25034 8.14997 7.23549 7.99917 7.26443 7.85368C7.29337 7.7082 7.3648 7.57456 7.46969 7.46967C7.57458 7.36478 7.70821 7.29335 7.8537 7.26441C7.99919 7.23547 8.14999 7.25032 8.28703 7.30709C8.42407 7.36386 8.54121 7.45999 8.62362 7.58332C8.70603 7.70666 8.75002 7.85166 8.75002 8C8.75002 8.19891 8.671 8.38968 8.53035 8.53033C8.3897 8.67098 8.19893 8.75 8.00002 8.75ZM10.75 8.75C10.6017 8.75 10.4567 8.70601 10.3333 8.6236C10.21 8.54119 10.1139 8.42406 10.0571 8.28701C10.0003 8.14997 9.98549 7.99917 10.0144 7.85368C10.0434 7.7082 10.1148 7.57456 10.2197 7.46967C10.3246 7.36478 10.4582 7.29335 10.6037 7.26441C10.7492 7.23547 10.9 7.25032 11.037 7.30709C11.1741 7.36386 11.2912 7.45999 11.3736 7.58332C11.456 7.70666 11.5 7.85166 11.5 8C11.5 8.19891 11.421 8.38968 11.2803 8.53033C11.1397 8.67098 10.9489 8.75 10.75 8.75Z" fill="#E7E5E4"/>
</svg>
