<svg width="16" height="16" viewBox="0 0 16 16" fill="none" xmlns="http://www.w3.org/2000/svg">
<path d="M13.98 4.13439L8.48 1.12501C8.33305 1.04381 8.16789 1.00122 8 1.00122C7.83211 1.00122 7.66695 1.04381 7.52 1.12501L2.02 4.13564C1.86293 4.22158 1.73181 4.34811 1.64034 4.50203C1.54888 4.65594 1.50041 4.83159 1.5 5.01064V10.9881C1.50041 11.1672 1.54888 11.3428 1.64034 11.4967C1.73181 11.6507 1.86293 11.7772 2.02 11.8631L7.52 14.8738C7.66695 14.955 7.83211 14.9976 8 14.9976C8.16789 14.9976 8.33305 14.955 8.48 14.8738L13.98 11.8631C14.1371 11.7772 14.2682 11.6507 14.3597 11.4967C14.4511 11.3428 14.4996 11.1672 14.5 10.9881V5.01126C14.4999 4.8319 14.4516 4.65586 14.3601 4.50158C14.2686 4.34731 14.1373 4.22048 13.98 4.13439ZM8 7.50001L2.97813 4.75001L8 2.00001L13.0219 4.75001L8 7.50001ZM8.5 13.7275V8.36439L13.5 5.62814V10.9881L8.5 13.7275Z" fill="#A8A29E"/>
</svg>
