<svg width="60" height="60" viewBox="0 0 60 60" fill="none" xmlns="http://www.w3.org/2000/svg">
<path d="M52.5 27.0821V48.75C52.5 49.7446 52.1049 50.6984 51.4016 51.4017C50.6984 52.105 49.7446 52.5 48.75 52.5H39.375C38.3804 52.5 37.4266 52.105 36.7234 51.4017C36.0201 50.6984 35.625 49.7446 35.625 48.75V39.375C35.625 38.8778 35.4275 38.4008 35.0758 38.0492C34.7242 37.6976 34.2473 37.5 33.75 37.5H26.25C25.7527 37.5 25.2758 37.6976 24.9242 38.0492C24.5725 38.4008 24.375 38.8778 24.375 39.375V48.75C24.375 49.7446 23.9799 50.6984 23.2766 51.4017C22.5734 52.105 21.6196 52.5 20.625 52.5H11.25C10.2554 52.5 9.30161 52.105 8.59835 51.4017C7.89509 50.6984 7.5 49.7446 7.5 48.75V27.0821C7.49992 26.5631 7.60758 26.0497 7.81615 25.5745C8.02473 25.0992 8.32968 24.6724 8.71172 24.3211L27.4617 6.63051L27.4875 6.60473C28.1778 5.97692 29.0774 5.62903 30.0105 5.62903C30.9437 5.62903 31.8433 5.97692 32.5336 6.60473C32.5416 6.6139 32.5502 6.62251 32.5594 6.63051L51.3094 24.3211C51.6876 24.6743 51.9886 25.1019 52.1935 25.5771C52.3984 26.0522 52.5028 26.5646 52.5 27.0821Z" fill="#57534E"/>
</svg>
