<svg width="329" height="336" viewBox="0 0 329 336" fill="none" xmlns="http://www.w3.org/2000/svg">
<path d="M157.078 184.87C154.858 185.428 152.662 186.269 150.531 187.099C149.296 187.579 146.219 189.289 145.058 189.09L145.021 188.5C146.093 186.721 154.738 183.413 157.085 182.329C156.886 183.305 156.809 183.904 157.078 184.87Z" fill="url(#paint0_linear_197_52)"/>
<path d="M294.428 133.614L304.263 133.644L304.241 138.931L294.454 138.907L294.428 133.614Z" fill="#393E41"/>
<path d="M23.7544 133.479L34.5057 133.423L34.5017 139.059L23.7144 139.021L23.7544 133.479Z" fill="#FAFAF9"/>
<path d="M95.5498 61.1499L103.799 61.2086L103.783 69.0372L95.6338 69.0332C95.3964 68.4746 95.5151 67.6859 95.5184 67.0812C95.5298 65.1039 95.5378 63.1266 95.5498 61.1499Z" fill="#FAFAF9"/>
<path d="M226.326 60.5747L235.022 60.628V68.806L226.344 68.8361L226.326 60.5747Z" fill="#FAFAF9"/>
<path d="M8.06006 297.751C10.8614 297.251 14.3127 297.607 17.1827 297.61C24.2047 297.616 31.2261 297.641 38.2474 297.722C55.1254 297.917 72.0081 297.659 88.8834 297.884L89.1341 298.427C87.7688 299.153 84.2008 298.738 82.5714 298.739C77.9561 298.739 73.3408 298.735 68.7254 298.729C55.7461 298.71 42.7667 298.663 29.7874 298.611C22.6494 298.581 15.3914 298.809 8.2694 298.402L8.06006 297.751Z" fill="#FAFAF9"/>
<path d="M144.191 58.5267C145.498 57.414 147.043 56.642 148.504 55.7533C150.355 54.6287 152.161 53.42 153.981 52.2473C153.988 53.9226 153.581 62.1247 154.569 62.9793C155.132 63.4667 155.902 63.4593 156.576 63.7287C153.256 66.4573 148.57 68.0547 144.746 70.1073C144.784 66.396 144.879 62.524 144.251 58.8553L144.191 58.5267Z" fill="#D6D3D1"/>
<path d="M154.256 128.891C154.287 131.478 154.313 134.065 154.347 136.651C154.367 138.157 154.191 139.845 155.134 141.083L155.98 141.434C153.009 143.615 148.832 145.174 145.367 146.397L145.347 133.207L154.256 128.891Z" fill="#D6D3D1"/>
<path d="M153.751 102.906C154.312 105.736 153.721 109.247 153.891 112.193C153.935 112.968 153.898 114.106 154.332 114.769C154.657 115.266 155.105 115.611 155.572 115.964C152.846 118.427 148.181 120.135 144.858 121.823L144.713 108.107L153.751 102.906Z" fill="#D6D3D1"/>
<path d="M155.436 75.2781L155.293 75.5461C154.917 76.2381 155.258 75.6301 154.795 76.3434C154.185 77.2834 154.249 78.5954 154.22 79.6787C154.151 82.2087 153.803 85.4821 154.4 87.9221C155.163 88.0634 156.167 88.1254 156.761 88.6374C153.403 91.2834 148.976 93.8487 144.887 95.1274C144.611 93.8521 144.755 92.3214 144.745 91.0094C144.726 88.1787 144.819 85.2921 144.573 82.4721L144.543 82.1627C147.963 79.6534 151.629 77.1574 155.436 75.2781Z" fill="#D6D3D1"/>
<path d="M154.297 158.189C155.236 163.093 153.535 168.752 154.832 173.635L144.88 177.157C144.586 175.854 144.818 174.135 144.834 172.789C144.87 169.498 144.91 166.207 144.949 162.916C147.993 161.035 151.013 159.582 154.297 158.189Z" fill="#D6D3D1"/>
<path d="M153.87 217.318L144.248 212.901L144.267 200.673L153.976 196.185L153.87 217.318Z" fill="#A8A29E"/>
<path d="M46.9029 307.196C56.3483 307.157 65.7936 307.137 75.2389 307.145C77.4116 307.146 79.5843 307.151 81.7576 307.157C82.6409 307.16 83.8329 307.005 84.6516 307.319C85.2856 307.563 85.8889 308.157 86.1403 308.787C86.4929 309.671 86.4743 311.047 85.9789 311.875C85.4903 312.693 84.7376 312.861 83.8756 313.111C75.1096 313.227 66.3343 313.143 57.5669 313.139C55.1436 313.137 52.7209 313.143 50.2976 313.145C49.1229 313.145 47.7143 313.269 46.5656 313.039C45.7523 312.877 44.9589 312.224 44.5876 311.484C44.2096 310.732 44.1703 310.141 44.4743 309.371C44.9569 308.147 45.7263 307.669 46.9029 307.196Z" fill="#FAFAF9"/>
<path d="M242.21 309.349C252.108 308.885 262.226 309.287 272.148 309.279C274.685 309.277 277.224 309.257 279.762 309.292C280.561 309.303 281.692 309.147 282.396 309.529C283.162 309.945 283.803 310.804 284.022 311.647C284.236 312.464 284.013 313.223 283.566 313.917C283.02 314.764 282.418 314.94 281.496 315.118C272.439 315.478 263.293 315.241 254.225 315.279C251.258 315.292 248.29 315.303 245.323 315.302C244.276 315.301 242.874 315.471 241.864 315.194C241.037 314.968 240.269 314.332 239.904 313.558C239.533 312.773 239.522 312.013 239.882 311.219C240.339 310.213 241.247 309.764 242.21 309.349Z" fill="#FAFAF9"/>
<path d="M165.077 30.8286L165.742 32.0499C165.653 35.8459 165.905 39.682 165.912 43.4873C165.933 55.1366 165.983 66.786 166 78.4353C166.047 110.776 165.94 143.116 165.927 175.457C165.923 186.763 166.018 198.068 165.985 209.374C165.976 212.488 165.959 215.602 165.907 218.716C165.879 220.419 165.961 222.281 165.657 223.954L165.754 224.156C165.587 224.35 165.333 224.52 165.134 224.682C164.513 224.187 164.049 223.554 163.421 223.058C160.559 220.794 157.244 218.713 153.87 217.318L153.976 196.185C154.353 195.755 156.765 194.989 157.395 194.729C157.377 192.581 157.357 190.433 157.328 188.286C157.313 187.191 157.447 185.898 157.078 184.87C156.809 183.904 156.886 183.305 157.085 182.329C157.428 181.551 157.28 180.551 157.277 179.707C157.271 177.647 157.531 175.061 157.131 173.073L154.831 173.635C153.535 168.752 155.236 163.093 154.297 158.189C154.988 157.624 156.667 157.173 157.541 156.801L157.558 152.927C155.484 153.571 153.416 154.233 151.346 154.89C150.054 155.3 148.787 155.797 147.421 155.833C150.031 154.127 154.188 152.143 157.192 151.312L157.535 151.219C157.533 148.102 157.913 144.367 157.33 141.336L156.883 141.113L155.98 141.434L155.134 141.083C154.191 139.845 154.367 138.157 154.347 136.651C154.313 134.065 154.287 131.478 154.256 128.891C154.637 128.487 156.957 127.745 157.566 127.49C157.602 124.459 157.604 121.429 157.565 118.397C157.553 117.545 157.745 116.088 157.259 115.369C156.484 115.356 156.235 115.586 155.572 115.964C155.105 115.611 154.657 115.266 154.332 114.769C153.898 114.106 153.935 112.968 153.891 112.193C153.721 109.247 154.312 105.736 153.751 102.906C154.884 102.19 156.44 101.782 157.723 101.409C157.788 97.35 158.202 92.7413 157.521 88.762L156.761 88.6373C156.167 88.1253 155.163 88.0633 154.4 87.922C153.803 85.482 154.151 82.2086 154.22 79.6786C154.249 78.5953 154.185 77.2833 154.795 76.3433C155.258 75.63 154.917 76.238 155.293 75.546L155.436 75.278C155.711 74.9326 156.871 74.402 157.293 74.1513C157.299 71.8773 157.305 69.6033 157.304 67.3293C157.303 66.1073 157.416 64.7886 157.134 63.598L156.576 63.7286C155.902 63.4593 155.132 63.4666 154.569 62.9793C153.581 62.1246 153.988 53.9226 153.981 52.2473C152.161 53.42 150.355 54.6286 148.504 55.7533C147.043 56.642 145.498 57.414 144.191 58.5266L143.813 58.0806C142.692 56.4673 142.168 54.298 141.932 52.3873C141.907 52.1826 141.731 51.3386 141.793 51.1713C142.022 50.546 143.577 49.4653 144.099 49.0073C147.418 46.0906 150.85 43.21 154.353 40.5133C156.874 38.572 159.507 36.7379 162.107 34.9019C162.798 34.4139 164.375 33.52 164.735 32.7506C164.938 32.3173 164.989 31.3273 165.077 30.8286Z" fill="#D6D3D1"/>
<path d="M96.5181 27.7141C99.2715 25.4261 102.577 23.5227 105.633 21.668C110.542 18.688 115.482 15.8474 120.767 13.572C129.257 9.91671 138.141 7.62805 147.216 6.01538C151.372 5.27738 155.654 4.50004 159.867 4.29004C156.686 8.27804 153.621 12.3581 150.201 16.1474C148.884 17.6061 147.431 19.3621 145.783 20.4427C143.682 21.8207 139.645 21.9341 137.154 22.5521C134.583 23.1901 132.029 23.9674 129.537 24.8614C119.383 28.5047 110.515 33.5894 101.491 39.4034C98.6061 41.4594 95.6688 43.5001 92.9581 45.7834C83.6221 53.6447 75.7908 62.9601 69.3174 73.2827C66.0461 78.4994 63.1968 84.0627 60.9881 89.8141C56.6368 101.143 54.1628 112.779 52.4254 124.749C51.1701 133.395 49.9248 142.773 52.0121 151.405L52.1214 151.842L44.9441 155.885C44.5421 152.603 43.9041 149.369 43.5641 146.075C42.7914 138.579 42.5074 130.765 43.1321 123.249C43.6274 117.285 44.7248 111.425 45.9454 105.574C51.4261 79.3014 66.1294 54.6014 85.8868 36.5234C89.2528 33.4434 92.6955 30.2194 96.5181 27.7141Z" fill="url(#paint1_linear_197_52)"/>
<path d="M164.927 0L165.017 0.00800578C166.455 0.328006 167.604 2.73133 168.903 3.586C169.125 3.732 169.893 3.814 170.165 3.87467C171.663 4.20533 173.165 4.46201 174.678 4.70601C179.437 5.47534 184.204 6.19733 188.916 7.22667C193.414 8.20867 197.767 9.72534 202.083 11.308C217.607 17 231.948 26.0707 243.859 37.556C249.856 43.338 255.191 49.7594 260.151 56.4414C268.893 68.2154 275.817 82.27 279.903 96.3554C281.294 101.152 282.221 106.056 283.112 110.965C285.733 125.424 286.299 139.503 284.137 154.064C284.012 154.617 284.029 154.508 283.634 154.831L276.335 150.645L276.482 137.051C276.252 131.561 275.088 126.123 274.233 120.703C272.546 110.019 270.442 99.968 266.459 89.858C259.706 72.7154 249.029 58.4067 235.326 46.2214C226.253 38.1534 216.435 31.52 205.264 26.6987C202.013 25.2953 198.663 24.1307 195.269 23.1247C193.252 22.5267 191.207 21.9713 189.156 21.5C187.372 21.0907 183.231 20.7953 182.039 19.598C179.107 16.6527 176.395 13.462 173.601 10.3867C170.613 7.1 167.27 3.788 164.927 0Z" fill="#FAFAF9"/>
<path d="M166.259 29.416C168.789 32.4127 172.171 34.618 175.312 36.9213C180.025 40.378 185.219 44.4274 188.754 49.1527L188.808 49.164C189.314 50.04 189.622 50.7267 189.772 51.7307C189.347 54.448 189.361 57.26 189.289 60.006C189.179 64.2874 189.134 68.5714 189.091 72.854C188.953 86.6047 188.947 100.359 188.881 114.11C188.779 135.676 188.779 157.243 188.755 178.809C188.746 185.918 188.737 193.027 188.731 200.136C188.727 204.084 188.556 208.122 188.801 212.059L188.556 212.183C185.575 213.669 182.403 214.73 179.412 216.228C174.665 218.606 170.291 221.433 165.754 224.156L165.657 223.954C165.961 222.281 165.879 220.419 165.907 218.716C165.959 215.602 165.976 212.488 165.985 209.374C166.018 198.068 165.923 186.763 165.927 175.457C165.94 143.116 166.047 110.776 166 78.4354C165.983 66.786 165.933 55.1367 165.912 43.4874C165.905 39.682 165.653 35.846 165.742 32.05C165.801 31.1353 165.672 30.1293 166.259 29.416Z" fill="#A8A29E"/>
<path d="M57.5123 164.455L57.9343 164.491C58.939 164.555 60.0376 164.283 61.0283 164.118L61.0076 198.851L70.5983 198.836L70.663 108.167C79.6356 103.799 87.779 97.3961 96.063 91.8548C107.467 84.2268 119.108 76.9161 130.326 69.0194C130.432 66.5261 130.084 63.9628 130.049 61.4574C129.988 57.0361 130.32 52.3761 129.724 48.0001L129.534 46.6414L164.808 22.0947C168.964 25.6874 173.58 28.6554 178.072 31.8061C182.768 35.0994 187.388 38.4941 192.124 41.7321C193.815 42.8874 195.514 44.0561 197.259 45.1294C198.218 45.7194 199.338 46.2261 200.194 46.9561L199.966 71.2008L257.902 107.592L258.347 198.726C260.09 198.731 267.733 199.118 268.723 198.372L268.684 162.498L268.949 162.445C270.393 162.985 273.034 163.521 274.093 164.57L274.31 164.828C275.202 165.813 277.098 166.609 278.276 167.285C278.396 167.354 279.2 167.769 279.242 167.853C279.304 167.973 279.247 168.884 279.248 169.073C279.254 170.575 279.26 172.077 279.267 173.579C279.304 181.916 279.209 190.278 279.442 198.612L327.009 198.405C327.794 198.535 328.249 199.157 328.698 199.751C328.863 200.591 328.929 201.201 328.558 202C328.34 202.472 327.912 203.013 327.412 203.191C326.544 203.498 325.192 203.359 324.268 203.36C322.212 203.361 320.156 203.361 318.1 203.36C300.64 203.349 283.182 203.264 265.722 203.284C251.494 203.301 236.918 202.663 222.759 204.133C213.525 205.091 204.606 207.087 195.806 209.999L195.932 81.0528L195.838 53.5467C195.838 52.4207 196.108 50.1354 195.772 49.1254C195.718 48.9647 195.128 48.4827 194.976 48.3314C193.036 48.8801 191.469 50.6094 189.772 51.7307C189.622 50.7267 189.314 50.0401 188.808 49.1641L188.754 49.1527C185.219 44.4274 180.026 40.3781 175.312 36.9214C172.171 34.6181 168.789 32.4127 166.26 29.4161C165.672 30.1294 165.801 31.1354 165.742 32.0501L165.078 30.8287L164.765 26.2254L134.252 47.7814C134.255 52.4774 134.26 57.1734 134.27 61.8694C134.277 64.7501 134.153 67.6954 134.472 70.5594C129.643 74.6854 123.596 77.7914 118.274 81.3028C107.222 88.5941 96.225 95.9654 85.2763 103.411C82.815 105.084 80.2896 106.651 77.8176 108.306C76.6516 109.087 75.267 109.867 74.3223 110.897L74.2796 114.288C76.2183 114.18 79.0496 111.848 80.759 110.837C95.5303 102.104 109.532 92.2161 123.784 82.6781C127.692 80.0621 131.677 77.5621 135.666 75.0721L135.376 81.8888L135.23 210.828C126.908 208.793 118.938 206.221 110.408 205.001C95.507 202.87 80.3996 203.309 65.3876 203.303C47.4923 203.297 29.5976 203.273 11.703 203.187C9.35095 203.175 6.99895 203.163 4.64695 203.148C3.90161 203.143 2.52961 203.272 1.84495 203.018C1.21828 202.785 0.548284 202.086 0.250951 201.5C-0.0490495 200.909 -0.0903862 200.219 0.182947 199.605C0.458281 198.985 0.960949 198.508 1.63428 198.359C3.06095 198.045 5.10695 198.31 6.60228 198.318C10.4609 198.339 14.3196 198.367 18.1783 198.386C25.715 198.423 33.2523 198.44 40.7896 198.472C44.575 198.488 48.5643 198.284 52.325 198.607L51.9576 167.164L56.4223 164.476C56.8476 164.169 56.9836 164.024 57.501 163.923L57.5123 164.455Z" fill="#D6D3D1"/>
<path d="M188.808 49.1641C189.279 48.9494 189.613 48.7087 190.01 48.3767C190.201 47.4294 189.91 47.8574 189.636 47.1254C189.517 46.8067 189.636 45.8821 189.636 45.5001L189.385 45.188L189.585 44.7407C190.94 45.6494 193.518 48.0121 194.976 48.3314C193.036 48.8801 191.469 50.6094 189.772 51.7307C189.622 50.7267 189.314 50.0401 188.808 49.1641Z" fill="#A19D9C"/>
<path d="M207.778 99.0027L212.158 100.859L212.145 105.751L211.854 106.11C210.45 105.792 209.096 105.201 207.751 104.693L207.778 99.0027Z" fill="#F6F7EB"/>
<path d="M207.626 119.469L212.122 121.266L212.16 127.455L207.778 125.939L207.626 119.469Z" fill="#F6F7EB"/>
<path d="M207.585 142.999L211.939 144.28L211.948 150.234C210.554 150.013 208.869 149.907 207.56 149.419L207.585 142.999Z" fill="#F6F7EB"/>
<path d="M208.036 165.023L212.346 165.237L212.355 171.901L208.014 171.523L208.036 165.023Z" fill="#F6F7EB"/>
<path d="M166.26 29.4159L166.105 28.6965C166.661 28.5725 166.548 28.6305 167.004 28.9199C169.202 30.3179 189.454 44.4132 189.585 44.7406L189.385 45.1879L189.636 45.4999C189.636 45.8819 189.517 46.8066 189.636 47.1252C189.91 47.8572 190.201 47.4292 190.01 48.3766C189.614 48.7086 189.28 48.9492 188.808 49.1639L188.754 49.1526C185.219 44.4272 180.026 40.3779 175.312 36.9212C172.171 34.6179 168.789 32.4126 166.26 29.4159Z" fill="#867774"/>
<path d="M52.3248 198.607L51.9575 167.164L56.4222 164.476C56.8475 164.169 56.9835 164.024 57.5009 163.923L57.5122 164.455C56.9675 165.824 57.0782 167.45 57.0609 168.911C57.0309 171.471 57.0348 174.031 57.0255 176.591C56.9988 183.997 56.9795 191.403 56.9615 198.808L52.3248 198.607Z" fill="#A8A29E"/>
<path d="M274.093 164.57L274.31 164.828C275.202 165.813 277.098 166.609 278.276 167.285C278.396 167.354 279.2 167.769 279.242 167.853C279.304 167.973 279.247 168.884 279.248 169.073C279.254 170.575 279.26 172.077 279.267 173.579C279.304 181.916 279.209 190.278 279.442 198.612L278.552 198.759L273.909 198.874C273.794 191.619 273.805 184.358 273.779 177.103C273.77 174.552 273.752 172.001 273.774 169.451C273.788 167.832 273.703 166.148 274.093 164.57Z" fill="#57534E"/>
<path d="M224.273 95.0234C219.963 92.3494 215.768 89.4881 211.384 86.9267C208.22 85.0781 204.732 83.3981 201.768 81.2507C200.837 80.5761 199.888 79.8934 199.642 78.7167C199.505 78.0561 199.522 77.4181 199.573 76.7507C200.381 76.7507 201.968 78.0267 202.744 78.4781C207.3 81.1254 211.685 83.9734 216.171 86.7201C220.161 89.1627 224.182 91.5487 228.149 94.0294C229.9 95.1241 231.925 96.1907 233.497 97.5214L253.414 110.009L253.844 198.934L226.907 198.927L226.23 96.4621C225.676 95.8894 224.934 95.4647 224.273 95.0234Z" fill="#A8A29E"/>
<path d="M239.454 144.723L244.018 146.071L244.008 155.471C242.534 155.099 241.025 154.998 239.516 154.857L239.454 144.723Z" fill="#393E41"/>
<path d="M239.561 173.715L244.65 174.417C244.546 176.979 244.44 180.034 244.906 182.547L244.947 182.751L244.502 183.193L239.651 183.126L239.561 173.715Z" fill="#393E41"/>
<path d="M238.996 115.375L243.949 116.579C244.348 117.103 244.16 118.455 244.167 119.173C244.189 121.739 244.287 124.333 244.159 126.895C242.319 126.353 240.694 125.678 238.789 125.311L238.996 115.375Z" fill="#393E41"/>
<path d="M74.2796 114.288C76.2183 114.18 79.0496 111.848 80.7589 110.837C95.5303 102.104 109.532 92.216 123.784 82.678C127.692 80.062 131.677 77.562 135.666 75.072L135.376 81.8887C132.046 84.65 128.171 86.4873 124.514 88.7653C120.615 91.194 116.856 93.8507 112.977 96.3087C110.354 97.9707 107.622 99.526 105.166 101.429C104.256 102.135 103.136 102.949 102.564 103.954L102.014 199.385L74.0283 198.513C73.9076 177.881 74.0023 157.257 74.0563 136.625C74.0689 131.787 74.0609 126.948 74.0603 122.109C74.0603 119.615 73.7569 116.713 74.2796 114.288Z" fill="#FAFAF9"/>
<path d="M88.8547 115.251C89.27 115.829 89.1607 116.963 89.1693 117.679C89.1987 120.033 89.218 122.386 89.2367 124.74L84.0767 127.089L84.186 118.261C85.2067 117.085 87.4073 115.889 88.8547 115.251Z" fill="#78716C"/>
<path d="M88.3134 171.751L89.0114 171.571C89.4847 172.425 89.2834 173.883 89.2887 174.869C89.3007 177.303 89.3167 179.735 89.3327 182.169L85.634 182.58L84.8847 182.589C84.7607 182.477 84.588 182.401 84.514 182.251C84.3967 182.014 84.5181 180.64 84.5187 180.307C84.5207 178.153 84.4914 176.012 84.394 173.86L88.3134 171.751Z" fill="#78716C"/>
<path d="M88.4991 143.751L88.9704 143.697C89.4931 144.322 89.4151 152.521 89.4737 154.141L84.8837 155.341L84.1077 155.301L84.1011 145.765C85.6551 145.204 87.0517 144.547 88.4991 143.751Z" fill="#78716C"/>
<path d="M102.36 283.06H84.12V281.2L89.76 276.76V243.58L73.74 283.06H70.44L54.54 243.16V277.48L60.84 280.66L59.64 283.06H45.6V281.2L51.24 276.76V241.6L45 238.24L46.2 235.84H59.22L74.22 273.52L89.16 235.84H102.96V237.7L97.26 242.14V278.44L103.56 280.66L102.36 283.06ZM186.97 234.64C191.21 234.64 194.95 235.66 198.19 237.7C201.47 239.74 204.01 242.56 205.81 246.16C207.61 249.76 208.51 253.84 208.51 258.4C208.51 263.08 207.15 267.4 204.43 271.36C201.71 275.32 198.33 278.46 194.29 280.78C190.25 283.06 186.39 284.2 182.71 284.2C178.47 284.2 174.71 283.2 171.43 281.2C168.19 279.16 165.67 276.34 163.87 272.74C162.07 269.14 161.17 265.06 161.17 260.5C161.17 255.82 162.53 251.5 165.25 247.54C167.97 243.54 171.35 240.4 175.39 238.12C179.43 235.8 183.29 234.64 186.97 234.64ZM183.49 239.68C180.85 239.68 178.43 240.46 176.23 242.02C174.07 243.54 172.37 245.68 171.13 248.44C169.89 251.16 169.27 254.22 169.27 257.62C169.27 261.54 169.89 265.14 171.13 268.42C172.37 271.66 174.25 274.26 176.77 276.22C179.33 278.18 182.47 279.16 186.19 279.16C188.83 279.16 191.23 278.4 193.39 276.88C195.59 275.32 197.31 273.18 198.55 270.46C199.79 267.7 200.41 264.62 200.41 261.22C200.41 257.26 199.79 253.66 198.55 250.42C197.31 247.14 195.43 244.54 192.91 242.62C190.39 240.66 187.25 239.68 183.49 239.68ZM279.833 277.06C279.833 278.66 279.873 280.14 279.953 281.5C280.073 282.82 280.213 283.72 280.373 284.2L268.853 298.84L266.573 297.04C268.853 294.16 270.373 291.72 271.133 289.72C271.933 287.72 272.333 285.26 272.333 282.34V240.58L264.893 238.24L266.093 235.84H285.533V237.7L279.833 242.14V277.06Z" fill="#FAFAF9"/>
<path d="M125.933 303.815C127.145 303.815 128.219 304.115 129.155 304.715C130.091 305.303 130.811 306.125 131.315 307.181C131.831 308.237 132.089 309.431 132.089 310.763C132.089 312.131 131.693 313.397 130.901 314.561C130.121 315.713 129.149 316.631 127.985 317.315C126.821 317.987 125.711 318.323 124.655 318.323C124.091 318.323 123.527 318.293 122.963 318.233C122.027 318.173 121.307 318.143 120.803 318.143H118.643V317.675L120.335 316.343V305.219L118.481 304.607L118.787 303.977H120.785C121.913 303.977 123.029 303.941 124.133 303.869C124.949 303.821 125.549 303.797 125.933 303.797V303.815ZM125.177 317.045C126.065 317.045 126.869 316.811 127.589 316.343C128.309 315.863 128.873 315.209 129.281 314.381C129.701 313.553 129.911 312.623 129.911 311.591C129.911 310.355 129.713 309.227 129.317 308.207C128.933 307.187 128.339 306.377 127.535 305.777C126.731 305.165 125.735 304.859 124.547 304.859C123.755 304.859 123.029 305.093 122.369 305.561V316.577C123.149 316.901 124.079 317.063 125.159 317.063L125.177 317.045ZM163.405 303.617C164.653 303.617 165.757 303.923 166.717 304.535C167.689 305.147 168.439 305.993 168.967 307.073C169.495 308.153 169.759 309.377 169.759 310.745C169.759 312.149 169.357 313.445 168.553 314.633C167.749 315.821 166.747 316.763 165.547 317.459C164.359 318.143 163.219 318.485 162.127 318.485C160.879 318.485 159.775 318.179 158.815 317.567C157.855 316.955 157.105 316.115 156.565 315.047C156.037 313.967 155.773 312.743 155.773 311.375C155.773 309.971 156.175 308.675 156.979 307.487C157.783 306.287 158.779 305.345 159.967 304.661C161.167 303.965 162.313 303.617 163.405 303.617ZM162.361 305.021C161.545 305.021 160.801 305.261 160.129 305.741C159.457 306.209 158.929 306.863 158.545 307.703C158.161 308.531 157.969 309.467 157.969 310.511C157.969 311.711 158.155 312.809 158.527 313.805C158.911 314.801 159.493 315.599 160.273 316.199C161.053 316.787 162.019 317.081 163.171 317.081C163.987 317.081 164.731 316.847 165.403 316.379C166.075 315.899 166.603 315.245 166.987 314.417C167.371 313.577 167.563 312.635 167.563 311.591C167.563 310.379 167.371 309.281 166.987 308.297C166.615 307.301 166.039 306.509 165.259 305.921C164.479 305.321 163.513 305.021 162.361 305.021ZM209.987 318.179H204.695V317.711L206.387 316.379V306.155L201.527 318.161H200.645L195.821 306.011V316.541L197.693 317.531L197.387 318.161H193.265V317.693L194.957 316.361V305.687L193.103 304.625L193.409 303.995H197.081L201.653 315.569L206.243 303.995H210.149V304.463L208.439 305.795V316.829L210.311 317.549L209.987 318.179Z" fill="#FAFAF9"/>
<defs>
<linearGradient id="paint0_linear_197_52" x1="147.49" y1="184.665" x2="155.63" y2="186.673" gradientUnits="userSpaceOnUse">
<stop stop-color="#57534E"/>
<stop offset="1" stop-color="#D6D3D1"/>
</linearGradient>
<linearGradient id="paint1_linear_197_52" x1="158.408" y1="3.2867" x2="26.1874" y2="137.016" gradientUnits="userSpaceOnUse">
<stop stop-color="#78716C"/>
<stop offset="1" stop-color="#D6D3D1"/>
</linearGradient>
</defs>
</svg>
