<svg width="16" height="16" viewBox="0 0 16 16" fill="none" xmlns="http://www.w3.org/2000/svg">
<path d="M11.25 7C11.25 7.0663 11.2237 7.12989 11.1768 7.17678C11.1299 7.22366 11.0663 7.25 11 7.25H6C5.9337 7.25 5.87011 7.22366 5.82322 7.17678C5.77634 7.12989 5.75 7.0663 5.75 7C5.75 6.9337 5.77634 6.87011 5.82322 6.82322C5.87011 6.77634 5.9337 6.75 6 6.75H11C11.0663 6.75 11.1299 6.77634 11.1768 6.82322C11.2237 6.87011 11.25 6.9337 11.25 7ZM11 8.75H6C5.9337 8.75 5.87011 8.77634 5.82322 8.82322C5.77634 8.87011 5.75 8.9337 5.75 9C5.75 9.0663 5.77634 9.12989 5.82322 9.17678C5.87011 9.22366 5.9337 9.25 6 9.25H11C11.0663 9.25 11.1299 9.22366 11.1768 9.17678C11.2237 9.12989 11.25 9.0663 11.25 9C11.25 8.9337 11.2237 8.87011 11.1768 8.82322C11.1299 8.77634 11.0663 8.75 11 8.75ZM14.25 4V11.5C14.25 11.8315 14.1183 12.1495 13.8839 12.3839C13.6495 12.6183 13.3315 12.75 13 12.75H2C1.66934 12.75 1.35216 12.619 1.11788 12.3857C0.883602 12.1523 0.751323 11.8357 0.75 11.505V5.5C0.75 5.4337 0.776339 5.37011 0.823223 5.32322C0.870107 5.27634 0.933696 5.25 1 5.25C1.0663 5.25 1.12989 5.27634 1.17678 5.32322C1.22366 5.37011 1.25 5.4337 1.25 5.5V11.5C1.25 11.6989 1.32902 11.8897 1.46967 12.0303C1.61032 12.171 1.80109 12.25 2 12.25C2.19891 12.25 2.38968 12.171 2.53033 12.0303C2.67098 11.8897 2.75 11.6989 2.75 11.5V4C2.75 3.80109 2.82902 3.61032 2.96967 3.46967C3.11032 3.32902 3.30109 3.25 3.5 3.25H13.5C13.6989 3.25 13.8897 3.32902 14.0303 3.46967C14.171 3.61032 14.25 3.80109 14.25 4ZM13.75 4C13.75 3.9337 13.7237 3.87011 13.6768 3.82322C13.6299 3.77634 13.5663 3.75 13.5 3.75H3.5C3.4337 3.75 3.37011 3.77634 3.32322 3.82322C3.27634 3.87011 3.25 3.9337 3.25 4V11.5C3.25064 11.7706 3.16285 12.0339 3 12.25H13C13.1989 12.25 13.3897 12.171 13.5303 12.0303C13.671 11.8897 13.75 11.6989 13.75 11.5V4Z" fill="#57534E"/>
</svg>
