<svg width="16" height="16" viewBox="0 0 16 16" fill="none" xmlns="http://www.w3.org/2000/svg">
<path d="M8 1C6.54182 1.00165 5.14383 1.58165 4.11274 2.61274C3.08165 3.64383 2.50165 5.04182 2.5 6.5C2.5 11.2063 7.5 14.7606 7.71313 14.9094C7.7972 14.9683 7.89735 14.9999 8 14.9999C8.10265 14.9999 8.2028 14.9683 8.28687 14.9094C8.5 14.7606 13.5 11.2063 13.5 6.5C13.4983 5.04182 12.9184 3.64383 11.8873 2.61274C10.8562 1.58165 9.45818 1.00165 8 1ZM8 4.5C8.39556 4.5 8.78224 4.6173 9.11114 4.83706C9.44004 5.05682 9.69638 5.36918 9.84776 5.73463C9.99913 6.10009 10.0387 6.50222 9.96157 6.89018C9.8844 7.27814 9.69392 7.63451 9.41421 7.91421C9.13451 8.19392 8.77814 8.3844 8.39018 8.46157C8.00222 8.53874 7.60009 8.49914 7.23463 8.34776C6.86918 8.19638 6.55682 7.94004 6.33706 7.61114C6.1173 7.28224 6 6.89556 6 6.5C6 5.96957 6.21071 5.46086 6.58579 5.08579C6.96086 4.71071 7.46957 4.5 8 4.5Z" fill="#A8A29E"/>
</svg>
