<svg width="60" height="60" viewBox="0 0 60 60" fill="none" xmlns="http://www.w3.org/2000/svg">
<path d="M56.1869 48.75H52.5002V22.5C52.5002 21.5054 52.1051 20.5516 51.4019 19.8483C50.6986 19.1451 49.7448 18.75 48.7502 18.75H38.4377C38.1891 18.75 37.9506 18.8488 37.7748 19.0246C37.599 19.2004 37.5002 19.4389 37.5002 19.6875V48.75H33.7502V7.59609C33.7564 7.01198 33.6297 6.43412 33.3795 5.90624C33.1294 5.37837 32.7624 4.91431 32.3065 4.54922C31.6849 4.06461 30.9265 3.78817 30.1389 3.75914C29.3512 3.73011 28.5745 3.94997 27.919 4.3875L9.16896 16.875C8.6546 17.2182 8.23308 17.6832 7.94193 18.2287C7.65078 18.7742 7.49904 19.3832 7.50021 20.0016V48.75H3.81349C3.32896 48.7428 2.85969 48.9194 2.50009 49.2442C2.14048 49.5691 1.91722 50.018 1.87521 50.5008C1.85818 50.7572 1.89407 51.0145 1.98064 51.2565C2.06722 51.4985 2.20262 51.7202 2.37846 51.9076C2.5543 52.0951 2.76681 52.2445 3.00279 52.3464C3.23876 52.4482 3.49317 52.5005 3.75021 52.5H56.2502C56.5073 52.5005 56.7617 52.4482 56.9976 52.3464C57.2336 52.2445 57.4461 52.0951 57.622 51.9076C57.7978 51.7202 57.9332 51.4985 58.0198 51.2565C58.1064 51.0145 58.1422 50.7572 58.1252 50.5008C58.0832 50.018 57.8599 49.5691 57.5003 49.2442C57.1407 48.9194 56.6715 48.7428 56.1869 48.75ZM17.8127 43.125C17.8133 43.382 17.761 43.6364 17.6591 43.8724C17.5572 44.1084 17.4079 44.3209 17.2204 44.4967C17.0329 44.6726 16.8113 44.808 16.5692 44.8946C16.3272 44.9811 16.07 45.017 15.8135 45C15.3303 44.9579 14.881 44.7344 14.5562 44.3742C14.2313 44.0141 14.055 43.5443 14.0627 43.0594V39.4383C14.0561 38.9539 14.2329 38.4849 14.5576 38.1254C14.8823 37.7659 15.3309 37.5425 15.8135 37.5C16.07 37.483 16.3272 37.5188 16.5692 37.6054C16.8113 37.692 17.0329 37.8274 17.2204 38.0032C17.4079 38.1791 17.5572 38.3916 17.6591 38.6276C17.761 38.8635 17.8133 39.1179 17.8127 39.375V43.125ZM17.8127 30C17.8133 30.257 17.761 30.5114 17.6591 30.7474C17.5572 30.9834 17.4079 31.1959 17.2204 31.3717C17.0329 31.5476 16.8113 31.683 16.5692 31.7696C16.3272 31.8561 16.07 31.892 15.8135 31.875C15.3305 31.8324 14.8816 31.6087 14.5568 31.2487C14.232 30.8887 14.0555 30.4191 14.0627 29.9344V26.3133C14.0561 25.8289 14.2329 25.3599 14.5576 25.0004C14.8823 24.641 15.3309 24.4175 15.8135 24.375C16.07 24.358 16.3272 24.3938 16.5692 24.4804C16.8113 24.567 17.0329 24.7024 17.2204 24.8782C17.4079 25.0541 17.5572 25.2666 17.6591 25.5026C17.761 25.7385 17.8133 25.993 17.8127 26.25V30ZM27.1877 43.125C27.1883 43.382 27.136 43.6364 27.0341 43.8724C26.9322 44.1084 26.7829 44.3209 26.5954 44.4967C26.4079 44.6726 26.1863 44.808 25.9442 44.8946C25.7022 44.9811 25.445 45.017 25.1885 45C24.7061 44.958 24.2575 44.7351 23.9328 44.376C23.608 44.0169 23.4312 43.5482 23.4377 43.064V39.4383C23.4317 38.9543 23.6088 38.4859 23.9334 38.1269C24.2581 37.7679 24.7064 37.5448 25.1885 37.5023C25.445 37.4853 25.7022 37.5212 25.9442 37.6078C26.1863 37.6943 26.4079 37.8297 26.5954 38.0056C26.7829 38.1814 26.9322 38.3939 27.0341 38.6299C27.136 38.8659 27.1883 39.1203 27.1877 39.3773V43.125ZM27.1877 30C27.1883 30.257 27.136 30.5114 27.0341 30.7474C26.9322 30.9834 26.7829 31.1959 26.5954 31.3717C26.4079 31.5476 26.1863 31.683 25.9442 31.7696C25.7022 31.8561 25.445 31.892 25.1885 31.875C24.7064 31.8325 24.2581 31.6094 23.9334 31.2504C23.6088 30.8914 23.4317 30.423 23.4377 29.939V26.3133C23.4317 25.8293 23.6088 25.3609 23.9334 25.0019C24.2581 24.6429 24.7064 24.4198 25.1885 24.3773C25.445 24.3603 25.7022 24.3962 25.9442 24.4828C26.1863 24.5693 26.4079 24.7047 26.5954 24.8806C26.7829 25.0564 26.9322 25.2689 27.0341 25.5049C27.136 25.7409 27.1883 25.9953 27.1877 26.2523V30Z" fill="#57534E"/>
</svg>
