<svg width="32" height="26" viewBox="0 0 32 26" fill="none" xmlns="http://www.w3.org/2000/svg">
<path d="M29.9665 23.9999H28.0002V9.9999C28.0002 9.46947 27.7895 8.96076 27.4145 8.58569C27.0394 8.21061 26.5307 7.9999 26.0002 7.9999H20.5002C20.3676 7.9999 20.2405 8.05258 20.1467 8.14635C20.0529 8.24012 20.0002 8.36729 20.0002 8.4999V23.9999H18.0002V2.05115C18.0036 1.73963 17.9359 1.43143 17.8025 1.1499C17.6691 0.868365 17.4734 0.62087 17.2302 0.426151C16.8987 0.167697 16.4942 0.0202586 16.0742 0.00477572C15.6541 -0.0107072 15.2399 0.106552 14.8902 0.3399L4.89024 6.9999C4.61592 7.18293 4.39111 7.43095 4.23583 7.72188C4.08055 8.01281 3.99962 8.33762 4.00024 8.6674V23.9999H2.03399C1.77558 23.9961 1.5253 24.0903 1.33351 24.2635C1.14172 24.4367 1.02265 24.6762 1.00024 24.9337C0.991162 25.0704 1.0103 25.2076 1.05647 25.3367C1.10264 25.4658 1.17486 25.584 1.26864 25.684C1.36242 25.784 1.47576 25.8636 1.60162 25.918C1.72747 25.9723 1.86316 26.0002 2.00024 25.9999H30.0002C30.1373 26.0002 30.273 25.9723 30.3989 25.918C30.5247 25.8636 30.6381 25.784 30.7318 25.684C30.8256 25.584 30.8978 25.4658 30.944 25.3367C30.9902 25.2076 31.0093 25.0704 31.0002 24.9337C30.9778 24.6762 30.8588 24.4367 30.667 24.2635C30.4752 24.0903 30.2249 23.9961 29.9665 23.9999ZM9.50024 20.9999C9.50055 21.137 9.47266 21.2727 9.41831 21.3985C9.36397 21.5244 9.28432 21.6377 9.18433 21.7315C9.08434 21.8253 8.96613 21.8975 8.83705 21.9437C8.70797 21.9898 8.57078 22.009 8.43399 21.9999C8.1763 21.9775 7.93668 21.8582 7.76342 21.6662C7.59015 21.4741 7.49611 21.2235 7.50024 20.9649V19.0337C7.49672 18.7753 7.59101 18.5252 7.76419 18.3335C7.93737 18.1417 8.17663 18.0226 8.43399 17.9999C8.57078 17.9908 8.70797 18.01 8.83705 18.0561C8.96613 18.1023 9.08434 18.1745 9.18433 18.2683C9.28432 18.3621 9.36397 18.4754 9.41831 18.6013C9.47266 18.7271 9.50055 18.8628 9.50024 18.9999V20.9999ZM9.50024 13.9999C9.50055 14.137 9.47266 14.2727 9.41831 14.3985C9.36397 14.5244 9.28432 14.6377 9.18433 14.7315C9.08434 14.8253 8.96613 14.8975 8.83705 14.9437C8.70797 14.9898 8.57078 15.009 8.43399 14.9999C8.17641 14.9772 7.93697 14.8579 7.76376 14.6659C7.59055 14.4739 7.4964 14.2235 7.50024 13.9649V12.0337C7.49672 11.7753 7.59101 11.5252 7.76419 11.3335C7.93737 11.1417 8.17663 11.0226 8.43399 10.9999C8.57078 10.9908 8.70797 11.01 8.83705 11.0561C8.96613 11.1023 9.08434 11.1745 9.18433 11.2683C9.28432 11.3621 9.36397 11.4754 9.41831 11.6013C9.47266 11.7271 9.50055 11.8628 9.50024 11.9999V13.9999ZM14.5002 20.9999C14.5005 21.137 14.4727 21.2727 14.4183 21.3985C14.364 21.5244 14.2843 21.6377 14.1843 21.7315C14.0843 21.8253 13.9661 21.8975 13.8371 21.9437C13.708 21.9898 13.5708 22.009 13.434 21.9999C13.1767 21.9775 12.9375 21.8586 12.7643 21.6671C12.5911 21.4756 12.4967 21.2256 12.5002 20.9674V19.0337C12.497 18.7755 12.5915 18.5257 12.7646 18.3343C12.9378 18.1428 13.1769 18.0238 13.434 18.0012C13.5708 17.9921 13.708 18.0112 13.8371 18.0574C13.9661 18.1036 14.0843 18.1758 14.1843 18.2696C14.2843 18.3633 14.364 18.4767 14.4183 18.6025C14.4727 18.7284 14.5005 18.8641 14.5002 19.0012V20.9999ZM14.5002 13.9999C14.5005 14.137 14.4727 14.2727 14.4183 14.3985C14.364 14.5244 14.2843 14.6377 14.1843 14.7315C14.0843 14.8253 13.9661 14.8975 13.8371 14.9437C13.708 14.9898 13.5708 15.009 13.434 14.9999C13.1769 14.9772 12.9378 14.8582 12.7646 14.6668C12.5915 14.4753 12.497 14.2255 12.5002 13.9674V12.0337C12.497 11.7755 12.5915 11.5257 12.7646 11.3343C12.9378 11.1428 13.1769 11.0238 13.434 11.0012C13.5708 10.9921 13.708 11.0112 13.8371 11.0574C13.9661 11.1036 14.0843 11.1758 14.1843 11.2696C14.2843 11.3633 14.364 11.4767 14.4183 11.6025C14.4727 11.7284 14.5005 11.8641 14.5002 12.0012V13.9999Z" fill="#44403C"/>
</svg>
