<svg width="16" height="16" viewBox="0 0 16 16" fill="none" xmlns="http://www.w3.org/2000/svg">
<path d="M15.5 7.5V10.5C15.5 10.7652 15.3946 11.0196 15.2071 11.2071C15.0196 11.3946 14.7652 11.5 14.5 11.5H14V12.5C14 12.6326 13.9473 12.7598 13.8536 12.8536C13.7598 12.9473 13.6326 13 13.5 13C13.3674 13 13.2402 12.9473 13.1464 12.8536C13.0527 12.7598 13 12.6326 13 12.5V11.5H3V12.5C3 12.6326 2.94732 12.7598 2.85355 12.8536C2.75979 12.9473 2.63261 13 2.5 13C2.36739 13 2.24021 12.9473 2.14645 12.8536C2.05268 12.7598 2 12.6326 2 12.5V11.5H1.5C1.23478 11.5 0.98043 11.3946 0.792893 11.2071C0.605357 11.0196 0.5 10.7652 0.5 10.5V7.5C0.5 7.23478 0.605357 6.98043 0.792893 6.79289C0.98043 6.60536 1.23478 6.5 1.5 6.5H2C2.26522 6.5 2.51957 6.60536 2.70711 6.79289C2.89464 6.98043 3 7.23478 3 7.5V8.5C3 8.63261 3.05268 8.75979 3.14645 8.85355C3.24021 8.94732 3.36739 9 3.5 9H12.5C12.6326 9 12.7598 8.94732 12.8536 8.85355C12.9473 8.75979 13 8.63261 13 8.5V7.5C13 7.23478 13.1054 6.98043 13.2929 6.79289C13.4804 6.60536 13.7348 6.5 14 6.5H14.5C14.7652 6.5 15.0196 6.60536 15.2071 6.79289C15.3946 6.98043 15.5 7.23478 15.5 7.5ZM12 7.5C12 6.96957 12.2107 6.46086 12.5858 6.08579C12.9609 5.71071 13.4696 5.5 14 5.5H14.75C14.8163 5.5 14.8799 5.47366 14.9268 5.42678C14.9737 5.37989 15 5.3163 15 5.25V4.5C15 4.23478 14.8946 3.98043 14.7071 3.79289C14.5196 3.60536 14.2652 3.5 14 3.5H8.75C8.6837 3.5 8.62011 3.52634 8.57322 3.57322C8.52634 3.62011 8.5 3.6837 8.5 3.75V8H12V7.5ZM1.25 5.5H2C2.53043 5.5 3.03914 5.71071 3.41421 6.08579C3.78929 6.46086 4 6.96957 4 7.5V8H7.5V3.75C7.5 3.6837 7.47366 3.62011 7.42678 3.57322C7.37989 3.52634 7.3163 3.5 7.25 3.5H2C1.73478 3.5 1.48043 3.60536 1.29289 3.79289C1.10536 3.98043 1 4.23478 1 4.5V5.25C1 5.3163 1.02634 5.37989 1.07322 5.42678C1.12011 5.47366 1.1837 5.5 1.25 5.5Z" fill="#A8A29E"/>
</svg>
