<svg width="16" height="16" viewBox="0 0 16 16" fill="none" xmlns="http://www.w3.org/2000/svg">
<path d="M14.7406 9.845L13.9906 3.845C13.9528 3.54263 13.8059 3.26447 13.5774 3.06283C13.349 2.86118 13.0547 2.74993 12.75 2.75H2C1.80109 2.75 1.61032 2.82902 1.46967 2.96967C1.32902 3.11032 1.25 3.30109 1.25 3.5V9C1.25 9.19891 1.32902 9.38968 1.46967 9.53033C1.61032 9.67098 1.80109 9.75 2 9.75H4.84562L7.27625 14.6119C7.29703 14.6534 7.32898 14.6883 7.3685 14.7127C7.40802 14.7371 7.45356 14.75 7.5 14.75C8.09674 14.75 8.66903 14.5129 9.09099 14.091C9.51295 13.669 9.75 13.0967 9.75 12.5V11.25H13.5C13.6773 11.25 13.8525 11.2124 14.0141 11.1395C14.1757 11.0666 14.3199 10.9602 14.4373 10.8274C14.5546 10.6945 14.6423 10.5382 14.6946 10.3688C14.7469 10.1994 14.7626 10.0209 14.7406 9.845ZM4.75 9.25H2C1.9337 9.25 1.87011 9.22366 1.82322 9.17678C1.77634 9.12989 1.75 9.0663 1.75 9V3.5C1.75 3.4337 1.77634 3.37011 1.82322 3.32322C1.87011 3.27634 1.9337 3.25 2 3.25H4.75V9.25ZM14.0625 10.4963C13.9921 10.576 13.9055 10.6399 13.8086 10.6837C13.7116 10.7274 13.6064 10.75 13.5 10.75H9.5C9.4337 10.75 9.37011 10.7763 9.32322 10.8232C9.27634 10.8701 9.25 10.9337 9.25 11V12.5C9.25007 12.938 9.0859 13.3601 8.7899 13.6829C8.49391 14.0058 8.08761 14.2059 7.65125 14.2437L5.25 9.44125V3.25H12.75C12.9328 3.24996 13.1094 3.31669 13.2464 3.43765C13.3835 3.55861 13.4717 3.72547 13.4944 3.90687L14.2444 9.90687C14.2576 10.0124 14.2482 10.1195 14.2168 10.2211C14.1855 10.3227 14.1329 10.4165 14.0625 10.4963Z" fill="#78716C"/>
</svg>
