<svg width="16" height="16" viewBox="0 0 16 16" fill="none" xmlns="http://www.w3.org/2000/svg">
<path d="M14.5 13.5H13V2.5C13 2.23478 12.8946 1.98043 12.7071 1.79289C12.5196 1.60536 12.2652 1.5 12 1.5H4C3.73478 1.5 3.48043 1.60536 3.29289 1.79289C3.10536 1.98043 3 2.23478 3 2.5V13.5H1.5C1.36739 13.5 1.24021 13.5527 1.14645 13.6464C1.05268 13.7402 1 13.8674 1 14C1 14.1326 1.05268 14.2598 1.14645 14.3536C1.24021 14.4473 1.36739 14.5 1.5 14.5H14.5C14.6326 14.5 14.7598 14.4473 14.8536 14.3536C14.9473 14.2598 15 14.1326 15 14C15 13.8674 14.9473 13.7402 14.8536 13.6464C14.7598 13.5527 14.6326 13.5 14.5 13.5ZM10.5 13.5H4V2.5H10.5V13.5ZM8 8.25C8 8.10166 8.04399 7.95666 8.1264 7.83332C8.20881 7.70999 8.32594 7.61386 8.46299 7.55709C8.60003 7.50032 8.75083 7.48547 8.89632 7.51441C9.0418 7.54335 9.17544 7.61478 9.28033 7.71967C9.38522 7.82456 9.45665 7.9582 9.48559 8.10368C9.51453 8.24917 9.49967 8.39997 9.44291 8.53701C9.38614 8.67406 9.29001 8.79119 9.16668 8.8736C9.04334 8.95601 8.89834 9 8.75 9C8.55109 9 8.36032 8.92098 8.21967 8.78033C8.07902 8.63968 8 8.44891 8 8.25Z" fill="#A8A29E"/>
</svg>
