<svg width="16" height="16" viewBox="0 0 16 16" fill="none" xmlns="http://www.w3.org/2000/svg">
<path d="M13 2H3C2.73478 2 2.48043 2.10536 2.29289 2.29289C2.10536 2.48043 2 2.73478 2 3V13C2 13.2652 2.10536 13.5196 2.29289 13.7071C2.48043 13.8946 2.73478 14 3 14H13C13.2652 14 13.5196 13.8946 13.7071 13.7071C13.8946 13.5196 14 13.2652 14 13V3C14 2.73478 13.8946 2.48043 13.7071 2.29289C13.5196 2.10536 13.2652 2 13 2ZM7 3.5H9C9.13261 3.5 9.25979 3.55268 9.35355 3.64645C9.44732 3.74021 9.5 3.86739 9.5 4C9.5 4.13261 9.44732 4.25979 9.35355 4.35355C9.25979 4.44732 9.13261 4.5 9 4.5H7C6.86739 4.5 6.74021 4.44732 6.64645 4.35355C6.55268 4.25979 6.5 4.13261 6.5 4C6.5 3.86739 6.55268 3.74021 6.64645 3.64645C6.74021 3.55268 6.86739 3.5 7 3.5ZM7.5 13H4V6H7.5V13ZM12 13H8.5V6H12V13Z" fill="#A8A29E"/>
</svg>
