<svg width="16" height="16" viewBox="0 0 16 16" fill="none" xmlns="http://www.w3.org/2000/svg">
<path d="M15 12.0001H14.5V6.16694C14.5 6.00236 14.4594 5.84034 14.3818 5.69522C14.3041 5.55011 14.1919 5.4264 14.055 5.33506L8.555 1.66819C8.39074 1.55868 8.19773 1.50024 8.00031 1.50024C7.80289 1.50024 7.60989 1.55868 7.44562 1.66819L1.94562 5.33506C1.80861 5.42633 1.69625 5.55001 1.61851 5.69512C1.54077 5.84024 1.50006 6.00231 1.5 6.16694V12.0001H1C0.867392 12.0001 0.740215 12.0527 0.646447 12.1465C0.552678 12.2403 0.5 12.3675 0.5 12.5001C0.5 12.6327 0.552678 12.7598 0.646447 12.8536C0.740215 12.9474 0.867392 13.0001 1 13.0001H15C15.1326 13.0001 15.2598 12.9474 15.3536 12.8536C15.4473 12.7598 15.5 12.6327 15.5 12.5001C15.5 12.3675 15.4473 12.2403 15.3536 12.1465C15.2598 12.0527 15.1326 12.0001 15 12.0001ZM8.5 8.00006H12V9.50006H8.5V8.00006ZM7.5 9.50006H4V8.00006H7.5V9.50006ZM4 10.5001H7.5V12.0001H4V10.5001ZM8.5 10.5001H12V12.0001H8.5V10.5001Z" fill="#A8A29E"/>
</svg>
