<svg width="16" height="16" viewBox="0 0 16 16" fill="none" xmlns="http://www.w3.org/2000/svg">
<path d="M14.4375 5.1725C14.3201 5.03962 14.1758 4.93323 14.0142 4.86038C13.8526 4.78754 13.6773 4.74991 13.5 4.75H9.75V3.5C9.75 2.90326 9.51295 2.33097 9.09099 1.90901C8.66903 1.48705 8.09674 1.25 7.5 1.25C7.45356 1.24997 7.40802 1.26287 7.3685 1.28727C7.32898 1.31167 7.29703 1.34659 7.27625 1.38813L4.84562 6.25H2C1.80109 6.25 1.61032 6.32902 1.46967 6.46967C1.32902 6.61032 1.25 6.80109 1.25 7V12.5C1.25 12.6989 1.32902 12.8897 1.46967 13.0303C1.61032 13.171 1.80109 13.25 2 13.25H12.75C13.0547 13.2501 13.349 13.1388 13.5774 12.9372C13.8059 12.7355 13.9528 12.4574 13.9906 12.155L14.7406 6.155C14.7627 5.9791 14.747 5.80053 14.6948 5.63114C14.6425 5.46175 14.5548 5.30541 14.4375 5.1725ZM4.75 12.75H2C1.9337 12.75 1.87011 12.7237 1.82322 12.6768C1.77634 12.6299 1.75 12.5663 1.75 12.5V7C1.75 6.9337 1.77634 6.87011 1.82322 6.82322C1.87011 6.77634 1.9337 6.75 2 6.75H4.75V12.75ZM14.2444 6.09312L13.4944 12.0931C13.4717 12.2745 13.3835 12.4414 13.2464 12.5624C13.1094 12.6833 12.9328 12.75 12.75 12.75H5.25V6.55875L7.65125 1.75625C8.08761 1.79411 8.49391 1.99422 8.7899 2.31706C9.0859 2.6399 9.25007 3.062 9.25 3.5V5C9.25 5.0663 9.27634 5.12989 9.32322 5.17678C9.37011 5.22366 9.4337 5.25 9.5 5.25H13.5C13.6064 5.24997 13.7115 5.27258 13.8085 5.3163C13.9055 5.36003 13.992 5.42388 14.0624 5.50362C14.1328 5.58336 14.1854 5.67716 14.2168 5.77879C14.2482 5.88043 14.2576 5.98758 14.2444 6.09312Z" fill="#78716C"/>
</svg>
