<svg width="330" height="337" viewBox="0 0 330 337" fill="none" xmlns="http://www.w3.org/2000/svg">
<path d="M157.57 185.745C155.349 186.303 153.154 187.143 151.022 187.973C149.788 188.454 146.71 190.163 145.549 189.965L145.512 189.375C146.584 187.596 155.229 184.287 157.576 183.204C157.378 184.179 157.3 184.779 157.57 185.745Z" fill="url(#paint0_linear_197_51)"/>
<path d="M294.919 134.489L304.754 134.519L304.732 139.805L294.945 139.781L294.919 134.489Z" fill="#393E41"/>
<path d="M24.2456 134.353L34.9969 134.298L34.9929 139.933L24.2056 139.896L24.2456 134.353Z" fill="#393E41"/>
<path d="M96.041 62.0247L104.29 62.0833L104.274 69.912L96.125 69.908C95.8876 69.3493 96.0063 68.5607 96.0096 67.956C96.021 65.9787 96.029 64.0013 96.041 62.0247Z" fill="#393E41"/>
<path d="M226.817 61.4495L235.513 61.5028V69.6808L226.835 69.7108L226.817 61.4495Z" fill="#393E41"/>
<path d="M8.55127 298.626C11.3526 298.126 14.8039 298.482 17.6739 298.485C24.6959 298.491 31.7173 298.516 38.7386 298.597C55.6166 298.792 72.4993 298.534 89.3747 298.759L89.6253 299.302C88.26 300.028 84.692 299.613 83.0626 299.614C78.4473 299.614 73.832 299.61 69.2166 299.604C56.2373 299.585 43.258 299.538 30.2786 299.486C23.1406 299.456 15.8826 299.684 8.76061 299.277L8.55127 298.626Z" fill="#1A1919"/>
<path d="M144.682 59.4014C145.989 58.2887 147.534 57.5167 148.995 56.6281C150.846 55.5034 152.652 54.2947 154.472 53.1221C154.479 54.7974 154.072 62.9994 155.06 63.8541C155.623 64.3414 156.393 64.3341 157.067 64.6034C153.747 67.3321 149.061 68.9294 145.237 70.9821C145.275 67.2707 145.37 63.3987 144.742 59.7301L144.682 59.4014Z" fill="#393E41"/>
<path d="M154.747 129.766C154.778 132.353 154.805 134.939 154.838 137.526C154.858 139.031 154.682 140.72 155.625 141.957L156.471 142.309C153.5 144.489 149.323 146.049 145.858 147.271L145.838 134.081L154.747 129.766Z" fill="#393E41"/>
<path d="M154.242 103.781C154.803 106.611 154.213 110.121 154.382 113.067C154.426 113.843 154.389 114.981 154.823 115.644C155.149 116.141 155.597 116.486 156.063 116.839C153.337 119.301 148.673 121.01 145.349 122.698L145.205 108.981L154.242 103.781Z" fill="#393E41"/>
<path d="M155.927 76.1528L155.784 76.4208C155.408 77.1128 155.749 76.5048 155.287 77.2182C154.676 78.1582 154.741 79.4702 154.711 80.5535C154.643 83.0835 154.295 86.3568 154.891 88.7968C155.654 88.9382 156.658 89.0002 157.253 89.5122C153.895 92.1582 149.467 94.7235 145.379 96.0022C145.103 94.7268 145.246 93.1962 145.237 91.8842C145.217 89.0535 145.311 86.1668 145.065 83.3468L145.035 83.0375C148.454 80.5282 152.121 78.0322 155.927 76.1528Z" fill="#393E41"/>
<path d="M154.788 159.064C155.728 163.968 154.026 169.627 155.323 174.51L145.372 178.032C145.078 176.729 145.31 175.01 145.325 173.664C145.362 170.373 145.401 167.082 145.44 163.791C148.484 161.91 151.504 160.457 154.788 159.064Z" fill="#393E41"/>
<path d="M154.361 218.193L144.739 213.776L144.759 201.548L154.467 197.06L154.361 218.193Z" fill="#393E41"/>
<path d="M47.3941 308.071C56.8395 308.032 66.2848 308.012 75.7302 308.019C77.9028 308.021 80.0755 308.025 82.2488 308.032C83.1321 308.035 84.3241 307.879 85.1428 308.194C85.7768 308.438 86.3802 309.032 86.6315 309.661C86.9842 310.545 86.9655 311.921 86.4701 312.75C85.9815 313.568 85.2288 313.735 84.3668 313.985C75.6008 314.101 66.8255 314.018 58.0581 314.013C55.6348 314.012 53.2121 314.017 50.7888 314.019C49.6141 314.02 48.2055 314.143 47.0568 313.914C46.2435 313.751 45.4501 313.099 45.0788 312.359C44.7008 311.607 44.6615 311.016 44.9655 310.245C45.4481 309.022 46.2175 308.543 47.3941 308.071Z" fill="#393E41"/>
<path d="M242.701 310.224C252.6 309.76 262.718 310.162 272.639 310.154C275.176 310.152 277.716 310.132 280.253 310.167C281.052 310.178 282.183 310.022 282.888 310.404C283.654 310.82 284.294 311.679 284.514 312.522C284.727 313.339 284.504 314.098 284.058 314.792C283.512 315.639 282.909 315.815 281.988 315.993C272.93 316.353 263.784 316.116 254.716 316.154C251.749 316.167 248.782 316.178 245.814 316.177C244.767 316.176 243.366 316.346 242.355 316.069C241.528 315.843 240.76 315.207 240.395 314.433C240.024 313.648 240.013 312.888 240.374 312.094C240.83 311.088 241.738 310.639 242.701 310.224Z" fill="#393E41"/>
<path d="M211.263 249.557C214.567 249.305 217.527 249.851 220.375 251.617C223.522 253.569 226.518 256.907 227.316 260.598C228.142 264.415 227.133 268.395 224.902 271.535C222.238 275.283 218.554 277.17 214.112 277.946C210.632 278.057 207.972 277.657 204.962 275.737C201.604 273.595 199.176 270.272 198.334 266.362C197.597 262.939 198.457 259.385 200.394 256.503C203.008 252.613 206.732 250.473 211.263 249.557Z" fill="#F6F7EB"/>
<path d="M117.722 249.334C121.277 249.132 124.327 249.644 127.384 251.565C130.639 253.612 133.449 257.165 134.256 260.961C135.024 264.575 133.918 268.416 131.918 271.445C129.418 275.229 126.231 277.089 121.86 277.985C117.998 278.067 114.962 277.585 111.661 275.437C108.46 273.355 105.904 269.949 105.173 266.171C104.437 262.365 105.319 258.751 107.494 255.583C109.898 252.083 113.629 250.103 117.722 249.334Z" fill="#F6F7EB"/>
<path d="M165.569 31.7034L166.233 32.9247C166.145 36.7207 166.397 40.5567 166.403 44.362C166.424 56.0114 166.474 67.6607 166.491 79.3101C166.539 111.651 166.431 143.991 166.419 176.331C166.415 187.637 166.509 198.943 166.477 210.249C166.467 213.363 166.451 216.477 166.399 219.591C166.37 221.293 166.453 223.156 166.148 224.829L166.245 225.031C166.079 225.225 165.825 225.395 165.625 225.557C165.005 225.061 164.54 224.429 163.913 223.933C161.05 221.669 157.735 219.587 154.361 218.193L154.467 197.059C154.844 196.63 157.256 195.864 157.887 195.603C157.868 193.456 157.848 191.308 157.819 189.161C157.805 188.065 157.938 186.773 157.569 185.745C157.3 184.779 157.377 184.179 157.576 183.204C157.919 182.425 157.771 181.426 157.769 180.581C157.763 178.522 158.022 175.936 157.623 173.947L155.323 174.51C154.026 169.627 155.727 163.968 154.788 159.064C155.479 158.499 157.159 158.048 158.033 157.675L158.049 153.802C155.975 154.446 153.907 155.108 151.837 155.765C150.545 156.175 149.278 156.671 147.913 156.707C150.523 155.002 154.679 153.018 157.683 152.187L158.027 152.094C158.024 148.977 158.405 145.242 157.821 142.211L157.375 141.987L156.471 142.309L155.625 141.957C154.682 140.72 154.858 139.031 154.838 137.526C154.805 134.939 154.778 132.353 154.747 129.766C155.128 129.361 157.449 128.62 158.057 128.365C158.093 125.333 158.095 122.303 158.056 119.272C158.045 118.419 158.236 116.963 157.75 116.244C156.975 116.231 156.726 116.461 156.063 116.839C155.597 116.486 155.149 116.141 154.823 115.644C154.389 114.981 154.426 113.843 154.382 113.067C154.213 110.121 154.803 106.611 154.242 103.781C155.375 103.065 156.931 102.657 158.215 102.284C158.279 98.2247 158.693 93.6161 158.013 89.6367L157.253 89.5121C156.658 89.0001 155.654 88.9381 154.891 88.7967C154.295 86.3567 154.643 83.0834 154.711 80.5534C154.741 79.4701 154.676 78.1581 155.287 77.2181C155.749 76.5047 155.408 77.1127 155.784 76.4207L155.927 76.1527C156.202 75.8074 157.363 75.2767 157.784 75.0261C157.791 72.7521 157.797 70.4781 157.795 68.2041C157.795 66.9821 157.907 65.6634 157.625 64.4727L157.067 64.6034C156.393 64.3341 155.623 64.3414 155.06 63.8541C154.072 62.9994 154.479 54.7974 154.472 53.1221C152.652 54.2947 150.846 55.5034 148.995 56.6281C147.534 57.5167 145.989 58.2887 144.682 59.4014L144.305 58.9554C143.183 57.3421 142.659 55.1727 142.423 53.2621C142.398 53.0574 142.223 52.2134 142.284 52.0461C142.513 51.4207 144.068 50.34 144.59 49.882C147.909 46.9654 151.341 44.0847 154.844 41.388C157.365 39.4467 159.999 37.6127 162.599 35.7767C163.289 35.2887 164.867 34.3947 165.227 33.6254C165.429 33.192 165.48 32.202 165.569 31.7034Z" fill="#D6D3D1"/>
<path d="M97.0093 28.5888C99.7627 26.3008 103.069 24.3975 106.124 22.5428C111.033 19.5628 115.973 16.7221 121.258 14.4468C129.749 10.7915 138.632 8.50281 147.707 6.89014C151.863 6.15214 156.145 5.3748 160.358 5.16479C157.177 9.1528 154.112 13.2328 150.692 17.0221C149.375 18.4808 147.922 20.2368 146.275 21.3175C144.173 22.6955 140.137 22.8088 137.645 23.4268C135.075 24.0648 132.521 24.8421 130.028 25.7361C119.874 29.3795 111.006 34.4642 101.983 40.2782C99.0973 42.3342 96.16 44.3748 93.4493 46.6582C84.1133 54.5195 76.282 63.8348 69.8086 74.1575C66.5373 79.3742 63.688 84.9375 61.4793 90.6888C57.128 102.018 54.654 113.654 52.9166 125.624C51.6613 134.27 50.416 143.648 52.5033 152.28L52.6126 152.717L45.4353 156.76C45.0333 153.478 44.3953 150.244 44.0553 146.95C43.2826 139.454 42.9986 131.64 43.6233 124.124C44.1186 118.16 45.216 112.3 46.4366 106.449C51.9173 80.1762 66.6206 55.4762 86.378 37.3982C89.744 34.3181 93.1867 31.0941 97.0093 28.5888Z" fill="url(#paint1_linear_197_51)"/>
<path d="M165.418 0.874756L165.508 0.882762C166.947 1.20276 168.095 3.60609 169.394 4.46076C169.616 4.60676 170.384 4.68876 170.657 4.74942C172.155 5.08009 173.656 5.33676 175.169 5.58076C179.929 6.3501 184.695 7.07209 189.407 8.10142C193.905 9.08342 198.259 10.6001 202.575 12.1828C218.098 17.8748 232.439 26.9454 244.351 38.4308C250.347 44.2128 255.682 50.6341 260.643 57.3161C269.384 69.0901 276.309 83.1448 280.394 97.2301C281.785 102.027 282.713 106.931 283.603 111.84C286.225 126.299 286.791 140.378 284.628 154.939C284.503 155.491 284.52 155.383 284.125 155.706L276.826 151.519L276.973 137.925C276.743 132.436 275.579 126.997 274.724 121.577C273.037 110.893 270.933 100.843 266.951 90.7328C260.197 73.5901 249.521 59.2815 235.817 47.0961C226.744 39.0281 216.927 32.3948 205.755 27.5734C202.504 26.1701 199.154 25.0054 195.76 23.9994C193.743 23.4014 191.698 22.8461 189.647 22.3748C187.863 21.9654 183.723 21.6701 182.531 20.4728C179.599 17.5274 176.887 14.3368 174.092 11.2614C171.105 7.97476 167.761 4.66276 165.418 0.874756Z" fill="#292524"/>
<path d="M166.751 30.2908C169.28 33.2874 172.662 35.4928 175.803 37.7961C180.517 41.2528 185.71 45.3021 189.245 50.0274L189.299 50.0388C189.805 50.9148 190.113 51.6014 190.263 52.6054C189.839 55.3228 189.852 58.1348 189.781 60.8808C189.671 65.1621 189.625 69.4461 189.582 73.7288C189.444 87.4795 189.438 101.233 189.373 114.985C189.27 136.551 189.271 158.117 189.246 179.684C189.237 186.793 189.228 193.902 189.222 201.011C189.219 204.959 189.047 208.997 189.292 212.934L189.047 213.058C186.066 214.544 182.895 215.605 179.903 217.103C175.157 219.481 170.783 222.308 166.245 225.031L166.148 224.829C166.453 223.156 166.37 221.294 166.399 219.591C166.451 216.477 166.467 213.363 166.477 210.249C166.509 198.943 166.415 187.638 166.419 176.332C166.431 143.991 166.539 111.651 166.491 79.3101C166.474 67.6608 166.424 56.0114 166.403 44.3621C166.397 40.5568 166.145 36.7208 166.233 32.9248C166.292 32.0101 166.163 31.0041 166.751 30.2908Z" fill="#292524"/>
<path d="M58.0035 165.33L58.4255 165.366C59.4302 165.43 60.5289 165.158 61.5195 164.993L61.4989 199.726L71.0895 199.711L71.1542 109.042C80.1269 104.674 88.2702 98.2709 96.5542 92.7295C107.958 85.1015 119.6 77.7908 130.818 69.8942C130.924 67.4008 130.575 64.8375 130.54 62.3322C130.479 57.9108 130.812 53.2508 130.216 48.8748L130.026 47.5162L165.299 22.9695C169.455 26.5622 174.071 29.5302 178.563 32.6808C183.259 35.9742 187.879 39.3688 192.616 42.6068C194.306 43.7622 196.006 44.9308 197.75 46.0042C198.71 46.5942 199.83 47.1008 200.686 47.8308L200.457 72.0755L258.394 108.467L258.838 199.601C260.582 199.606 268.224 199.993 269.214 199.247L269.176 163.373L269.44 163.32C270.884 163.86 273.525 164.396 274.584 165.445L274.802 165.703C275.694 166.688 277.59 167.484 278.768 168.16C278.887 168.229 279.691 168.644 279.734 168.728C279.796 168.848 279.738 169.759 279.739 169.948C279.746 171.45 279.752 172.952 279.758 174.454C279.795 182.791 279.7 191.153 279.934 199.487L327.5 199.28C328.285 199.41 328.74 200.032 329.189 200.626C329.354 201.466 329.42 202.076 329.05 202.875C328.831 203.347 328.403 203.888 327.903 204.066C327.035 204.373 325.683 204.234 324.76 204.235C322.704 204.236 320.647 204.236 318.591 204.235C301.132 204.224 283.673 204.139 266.214 204.159C251.985 204.176 237.41 203.538 223.25 205.008C214.016 205.966 205.097 207.962 196.297 210.874L196.423 81.9275L196.33 54.4215C196.329 53.2955 196.6 51.0102 196.263 50.0002C196.21 49.8395 195.619 49.3575 195.468 49.2062C193.528 49.7548 191.96 51.4842 190.264 52.6055C190.114 51.6015 189.806 50.9148 189.3 50.0388L189.246 50.0275C185.71 45.3022 180.517 41.2528 175.804 37.7962C172.662 35.4928 169.28 33.2875 166.751 30.2908C166.164 31.0042 166.292 32.0102 166.234 32.9248L165.569 31.7035L165.256 27.1002L134.743 48.6562C134.746 53.3522 134.751 58.0482 134.762 62.7442C134.768 65.6248 134.644 68.5702 134.963 71.4342C130.134 75.5602 124.088 78.6662 118.765 82.1775C107.714 89.4688 96.7162 96.8402 85.7675 104.286C83.3062 105.959 80.7809 107.526 78.3089 109.181C77.1429 109.962 75.7582 110.742 74.8135 111.772L74.7709 115.163C76.7095 115.055 79.5409 112.723 81.2502 111.712C96.0215 102.979 110.024 93.0909 124.275 83.5529C128.184 80.9369 132.168 78.4369 136.157 75.9469L135.867 82.7635L135.721 211.703C127.399 209.668 119.43 207.096 110.899 205.876C95.9982 203.745 80.8909 204.184 65.8789 204.178C47.9835 204.172 30.0888 204.148 12.1942 204.062C9.84216 204.05 7.49016 204.038 5.13816 204.023C4.39283 204.018 3.02082 204.146 2.33616 203.892C1.70949 203.66 1.0395 202.961 0.742162 202.375C0.442161 201.784 0.400825 201.094 0.674158 200.48C0.949492 199.86 1.45216 199.383 2.12549 199.234C3.55216 198.92 5.59816 199.185 7.09349 199.193C10.9522 199.214 14.8108 199.242 18.6695 199.261C26.2062 199.298 33.7435 199.315 41.2808 199.347C45.0662 199.363 49.0555 199.159 52.8162 199.482L52.4489 168.039L56.9135 165.351C57.3388 165.044 57.4749 164.899 57.9922 164.798L58.0035 165.33Z" fill="#393E41"/>
<path d="M189.299 50.0388C189.771 49.8241 190.105 49.5835 190.501 49.2515C190.692 48.3041 190.401 48.7321 190.127 48.0001C190.008 47.6815 190.127 46.7568 190.127 46.3748L189.876 46.0628L190.076 45.6155C191.431 46.5241 194.009 48.8868 195.467 49.2061C193.527 49.7548 191.96 51.4841 190.263 52.6055C190.113 51.6015 189.805 50.9148 189.299 50.0388Z" fill="#A19D9C"/>
<path d="M208.269 99.8774L212.65 101.733L212.636 106.625L212.345 106.985C210.941 106.667 209.588 106.076 208.242 105.568L208.269 99.8774Z" fill="#F6F7EB"/>
<path d="M208.118 120.344L212.614 122.141L212.652 128.329L208.269 126.813L208.118 120.344Z" fill="#F6F7EB"/>
<path d="M208.077 143.874L212.43 145.155L212.439 151.109C211.045 150.887 209.361 150.782 208.051 150.293L208.077 143.874Z" fill="#F6F7EB"/>
<path d="M208.528 165.898L212.838 166.112L212.846 172.776L208.505 172.398L208.528 165.898Z" fill="#F6F7EB"/>
<path d="M166.751 30.2906L166.596 29.5713C167.152 29.4473 167.04 29.5053 167.495 29.7946C169.693 31.1926 189.946 45.288 190.076 45.6153L189.876 46.0626L190.128 46.3746C190.128 46.7566 190.008 47.6813 190.128 48C190.402 48.732 190.692 48.304 190.502 49.2513C190.105 49.5833 189.771 49.824 189.3 50.0386L189.246 50.0273C185.71 45.302 180.517 41.2526 175.804 37.796C172.662 35.4926 169.28 33.2873 166.751 30.2906Z" fill="#867774"/>
<path d="M52.8161 199.481L52.4487 168.039L56.9134 165.351C57.3387 165.043 57.4747 164.899 57.9921 164.797L58.0034 165.33C57.4587 166.699 57.5694 168.325 57.5521 169.786C57.5221 172.345 57.5261 174.906 57.5167 177.466C57.4901 184.871 57.4707 192.277 57.4527 199.683L52.8161 199.481Z" fill="#A8A29E"/>
<path d="M274.584 165.445L274.802 165.703C275.694 166.687 277.59 167.483 278.768 168.16C278.887 168.229 279.691 168.644 279.734 168.728C279.796 168.848 279.738 169.759 279.739 169.947C279.746 171.449 279.752 172.951 279.758 174.453C279.795 182.791 279.7 191.153 279.934 199.487L279.044 199.634L274.4 199.749C274.285 192.493 274.296 185.233 274.27 177.978C274.261 175.427 274.243 172.876 274.265 170.326C274.28 168.707 274.194 167.023 274.584 165.445Z" fill="#57534E"/>
<path d="M224.764 95.8982C220.454 93.2242 216.26 90.3628 211.875 87.8015C208.712 85.9528 205.224 84.2728 202.26 82.1255C201.328 81.4508 200.379 80.7682 200.134 79.5915C199.996 78.9308 200.013 78.2928 200.064 77.6255C200.872 77.6255 202.459 78.9015 203.236 79.3528C207.791 82.0002 212.176 84.8482 216.662 87.5948C220.652 90.0375 224.673 92.4235 228.64 94.9042C230.391 95.9988 232.416 97.0655 233.988 98.3962L253.906 110.884L254.335 199.809L227.398 199.802L226.722 97.3368C226.168 96.7642 225.426 96.3395 224.764 95.8982Z" fill="#78716C"/>
<path d="M239.945 145.598L244.509 146.945L244.499 156.345C243.025 155.974 241.517 155.873 240.007 155.732L239.945 145.598Z" fill="#393E41"/>
<path d="M240.052 174.59L245.142 175.292C245.037 177.854 244.932 180.909 245.397 183.422L245.438 183.625L244.994 184.068L240.142 184.001L240.052 174.59Z" fill="#393E41"/>
<path d="M239.487 116.25L244.44 117.454C244.84 117.978 244.652 119.33 244.658 120.048C244.68 122.614 244.778 125.208 244.65 127.77C242.81 127.228 241.186 126.553 239.28 126.186L239.487 116.25Z" fill="#393E41"/>
<path d="M74.7708 115.163C76.7095 115.055 79.5408 112.723 81.2502 111.712C96.0215 102.979 110.023 93.0908 124.275 83.5528C128.184 80.9368 132.168 78.4368 136.157 75.9468L135.867 82.7634C132.538 85.5248 128.662 87.3621 125.005 89.6401C121.106 92.0688 117.348 94.7254 113.468 97.1834C110.845 98.8454 108.113 100.401 105.657 102.304C104.747 103.009 103.627 103.823 103.056 104.829L102.505 200.26L74.5195 199.387C74.3988 178.755 74.4935 158.131 74.5475 137.5C74.5602 132.661 74.5521 127.823 74.5515 122.984C74.5515 120.49 74.2482 117.587 74.7708 115.163Z" fill="#D6D3D1"/>
<path d="M89.3459 116.125C89.7612 116.703 89.6519 117.838 89.6605 118.554C89.6899 120.907 89.7092 123.261 89.7279 125.615L84.5679 127.964L84.6772 119.135C85.6979 117.96 87.8986 116.763 89.3459 116.125Z" fill="#393E41"/>
<path d="M88.8046 172.626L89.5026 172.446C89.9759 173.3 89.7746 174.758 89.7799 175.744C89.7919 178.178 89.8079 180.61 89.8239 183.044L86.1252 183.455L85.3759 183.464C85.2519 183.352 85.0792 183.276 85.0052 183.126C84.8879 182.889 85.0093 181.515 85.0099 181.182C85.0119 179.028 84.9826 176.887 84.8853 174.735L88.8046 172.626Z" fill="#393E41"/>
<path d="M88.9903 144.625L89.4616 144.572C89.9843 145.197 89.9063 153.396 89.9649 155.016L85.375 156.215L84.599 156.175L84.5923 146.639C86.1463 146.079 87.5429 145.421 88.9903 144.625Z" fill="#393E41"/>
<path d="M102.36 284.06H84.12V282.2L89.76 277.76V244.58L73.74 284.06H70.44L54.54 244.16V278.48L60.84 281.66L59.64 284.06H45.6V282.2L51.24 277.76V242.6L45 239.24L46.2 236.84H59.22L74.22 274.52L89.16 236.84H102.96V238.7L97.26 243.14V279.44L103.56 281.66L102.36 284.06ZM186.97 235.64C191.21 235.64 194.95 236.66 198.19 238.7C201.47 240.74 204.01 243.56 205.81 247.16C207.61 250.76 208.51 254.84 208.51 259.4C208.51 264.08 207.15 268.4 204.43 272.36C201.71 276.32 198.33 279.46 194.29 281.78C190.25 284.06 186.39 285.2 182.71 285.2C178.47 285.2 174.71 284.2 171.43 282.2C168.19 280.16 165.67 277.34 163.87 273.74C162.07 270.14 161.17 266.06 161.17 261.5C161.17 256.82 162.53 252.5 165.25 248.54C167.97 244.54 171.35 241.4 175.39 239.12C179.43 236.8 183.29 235.64 186.97 235.64ZM183.49 240.68C180.85 240.68 178.43 241.46 176.23 243.02C174.07 244.54 172.37 246.68 171.13 249.44C169.89 252.16 169.27 255.22 169.27 258.62C169.27 262.54 169.89 266.14 171.13 269.42C172.37 272.66 174.25 275.26 176.77 277.22C179.33 279.18 182.47 280.16 186.19 280.16C188.83 280.16 191.23 279.4 193.39 277.88C195.59 276.32 197.31 274.18 198.55 271.46C199.79 268.7 200.41 265.62 200.41 262.22C200.41 258.26 199.79 254.66 198.55 251.42C197.31 248.14 195.43 245.54 192.91 243.62C190.39 241.66 187.25 240.68 183.49 240.68ZM279.833 278.06C279.833 279.66 279.873 281.14 279.953 282.5C280.073 283.82 280.213 284.72 280.373 285.2L268.853 299.84L266.573 298.04C268.853 295.16 270.373 292.72 271.133 290.72C271.933 288.72 272.333 286.26 272.333 283.34V241.58L264.893 239.24L266.093 236.84H285.533V238.7L279.833 243.14V278.06Z" fill="#292524"/>
<path d="M126.424 304.69C127.636 304.69 128.71 304.99 129.646 305.59C130.582 306.178 131.302 307 131.806 308.056C132.322 309.112 132.58 310.306 132.58 311.638C132.58 313.006 132.184 314.272 131.392 315.436C130.612 316.588 129.64 317.506 128.476 318.19C127.312 318.862 126.202 319.198 125.146 319.198C124.582 319.198 124.018 319.168 123.454 319.108C122.518 319.048 121.798 319.018 121.294 319.018H119.134V318.55L120.826 317.218V306.094L118.972 305.482L119.278 304.852H121.276C122.404 304.852 123.52 304.816 124.624 304.744C125.44 304.696 126.04 304.672 126.424 304.672V304.69ZM125.668 317.92C126.556 317.92 127.36 317.686 128.08 317.218C128.8 316.738 129.364 316.084 129.772 315.256C130.192 314.428 130.402 313.498 130.402 312.466C130.402 311.23 130.204 310.102 129.808 309.082C129.424 308.062 128.83 307.252 128.026 306.652C127.222 306.04 126.226 305.734 125.038 305.734C124.246 305.734 123.52 305.968 122.86 306.436V317.452C123.64 317.776 124.57 317.938 125.65 317.938L125.668 317.92ZM163.897 304.492C165.145 304.492 166.249 304.798 167.209 305.41C168.181 306.022 168.931 306.868 169.459 307.948C169.987 309.028 170.251 310.252 170.251 311.62C170.251 313.024 169.849 314.32 169.045 315.508C168.241 316.696 167.239 317.638 166.039 318.334C164.851 319.018 163.711 319.36 162.619 319.36C161.371 319.36 160.267 319.054 159.307 318.442C158.347 317.83 157.597 316.99 157.057 315.922C156.529 314.842 156.265 313.618 156.265 312.25C156.265 310.846 156.667 309.55 157.471 308.362C158.275 307.162 159.271 306.22 160.459 305.536C161.659 304.84 162.805 304.492 163.897 304.492ZM162.853 305.896C162.037 305.896 161.293 306.136 160.621 306.616C159.949 307.084 159.421 307.738 159.037 308.578C158.653 309.406 158.461 310.342 158.461 311.386C158.461 312.586 158.647 313.684 159.019 314.68C159.403 315.676 159.985 316.474 160.765 317.074C161.545 317.662 162.511 317.956 163.663 317.956C164.479 317.956 165.223 317.722 165.895 317.254C166.567 316.774 167.095 316.12 167.479 315.292C167.863 314.452 168.055 313.51 168.055 312.466C168.055 311.254 167.863 310.156 167.479 309.172C167.107 308.176 166.531 307.384 165.751 306.796C164.971 306.196 164.005 305.896 162.853 305.896ZM210.478 319.054H205.186V318.586L206.878 317.254V307.03L202.018 319.036H201.136L196.312 306.886V317.416L198.184 318.406L197.878 319.036H193.756V318.568L195.448 317.236V306.562L193.594 305.5L193.9 304.87H197.572L202.144 316.444L206.734 304.87H210.64V305.338L208.93 306.67V317.704L210.802 318.424L210.478 319.054Z" fill="#292524"/>
<defs>
<linearGradient id="paint0_linear_197_51" x1="147.981" y1="185.539" x2="156.122" y2="187.547" gradientUnits="userSpaceOnUse">
<stop stop-color="#57534E"/>
<stop offset="1" stop-color="#D6D3D1"/>
</linearGradient>
<linearGradient id="paint1_linear_197_51" x1="158.899" y1="4.16146" x2="26.6786" y2="137.891" gradientUnits="userSpaceOnUse">
<stop stop-color="#292524"/>
<stop offset="1" stop-color="#D6D3D1"/>
</linearGradient>
</defs>
</svg>
