<svg width="16" height="16" viewBox="0 0 16 16" fill="none" xmlns="http://www.w3.org/2000/svg">
<path d="M8.24365 0.97998C6.89214 0.981601 5.59642 1.54996 4.64076 2.56037C3.68509 3.57077 3.14753 4.94071 3.146 6.36964C3.146 10.9815 7.78023 14.4645 7.97776 14.6103C8.05568 14.668 8.14852 14.699 8.24365 14.699C8.33879 14.699 8.43162 14.668 8.50954 14.6103C8.70708 14.4645 13.3413 10.9815 13.3413 6.36964C13.3398 4.94071 12.8022 3.57077 11.8465 2.56037C10.8909 1.54996 9.59517 0.981601 8.24365 0.97998ZM8.24365 4.40976C8.61028 4.40976 8.96867 4.52471 9.27351 4.74006C9.57835 4.95542 9.81594 5.26151 9.95624 5.61963C10.0965 5.97775 10.1333 6.37181 10.0617 6.75199C9.9902 7.13217 9.81366 7.48139 9.55441 7.75548C9.29517 8.02958 8.96487 8.21624 8.60529 8.29186C8.24571 8.36748 7.87299 8.32867 7.53428 8.18033C7.19556 8.03199 6.90605 7.78079 6.70236 7.45849C6.49868 7.13619 6.38996 6.75727 6.38996 6.36964C6.38996 5.84985 6.58526 5.35135 6.93289 4.9838C7.28053 4.61625 7.75202 4.40976 8.24365 4.40976Z" fill="#313131"/>
</svg>
