<svg width="32" height="32" viewBox="0 0 32 32" fill="none" xmlns="http://www.w3.org/2000/svg">
<path d="M28.3539 27.6463L21.7664 21.0588C23.6127 19.0278 24.5914 16.3552 24.4934 13.6122C24.3954 10.8692 23.2285 8.27329 21.242 6.3792C19.2555 4.4851 16.607 3.44305 13.8625 3.47572C11.1179 3.50839 8.49498 4.61318 6.55414 6.55402C4.6133 8.49485 3.50851 11.1178 3.47584 13.8624C3.44318 16.6069 4.48523 19.2554 6.37932 21.2419C8.27341 23.2284 10.8693 24.3953 13.6123 24.4933C16.3553 24.5913 19.0279 23.6125 21.0589 21.7663L27.6464 28.3538C27.7402 28.4476 27.8675 28.5003 28.0001 28.5003C28.1328 28.5003 28.2601 28.4476 28.3539 28.3538C28.4477 28.2599 28.5004 28.1327 28.5004 28C28.5004 27.8673 28.4477 27.7401 28.3539 27.6463ZM4.50014 14C4.50014 12.1211 5.0573 10.2844 6.10118 8.7221C7.14505 7.15983 8.62875 5.94219 10.3646 5.22316C12.1005 4.50413 14.0107 4.31599 15.8535 4.68255C17.6963 5.04911 19.3891 5.9539 20.7177 7.2825C22.0462 8.6111 22.951 10.3038 23.3176 12.1467C23.6842 13.9895 23.496 15.8996 22.777 17.6355C22.058 19.3714 20.8403 20.8551 19.2781 21.899C17.7158 22.9429 15.8791 23.5 14.0001 23.5C11.4814 23.4974 9.06657 22.4956 7.28555 20.7146C5.50452 18.9336 4.50278 16.5188 4.50014 14Z" fill="#57534E"/>
</svg>
